<svg width="18" height="18" viewBox="0 0 18 18" fill="none" xmlns="http://www.w3.org/2000/svg">
<path d="M17.8528 5.21694C17.3411 2.64329 15.5117 0.984377 13.1551 0.984377C11.8373 0.984377 10.4109 1.52701 9.01556 2.55027C7.60471 1.496 6.17835 0.953369 4.84502 0.953369C2.48843 0.953369 0.643469 2.62779 0.147345 5.23244C-0.596841 9.09291 1.79076 14.2247 8.783 17.0154C8.86052 17.0464 8.93804 17.0619 9.01556 17.0619C9.09308 17.0619 9.1706 17.0464 9.24812 17.0154C16.2249 14.1627 18.597 9.04639 17.8528 5.21694ZM9.01556 15.7441C2.87603 13.2014 0.751996 8.76732 1.38765 5.465C1.75975 3.49601 3.12409 2.20918 4.84502 2.20918C6.00781 2.20918 7.31014 2.76732 8.61246 3.83709C8.84502 4.02314 9.1706 4.02314 9.40316 3.83709C10.7055 2.79833 11.9923 2.25569 13.1551 2.25569C14.876 2.25569 16.2249 3.51151 16.6125 5.465C17.2481 8.73632 15.1396 13.1549 9.01556 15.7441Z" fill="black"/>
</svg>
