<svg width="20" height="12" viewBox="0 0 20 12" fill="none" xmlns="http://www.w3.org/2000/svg">
<path d="M19.6564 5.56549C19.616 5.51435 18.647 4.29871 16.9856 3.07816C14.7656 1.4471 12.35 0.584961 9.99993 0.584961C7.65 0.584961 5.23438 1.4471 3.01426 3.07816C1.35295 4.29866 0.383892 5.51435 0.34348 5.56549L0 5.99991L0.343524 6.43437C0.383936 6.48551 1.35299 7.70119 3.01431 8.92174C5.23443 10.5528 7.65004 11.4149 9.99998 11.4149C12.35 11.4149 14.7656 10.5528 16.9856 8.92174C18.647 7.70119 19.616 6.48551 19.6564 6.43437L20 5.99991L19.6564 5.56549ZM9.99993 9.79338C7.90823 9.79338 6.20646 8.09165 6.20646 5.99991C6.20646 5.67219 6.24823 5.35406 6.32673 5.05051L5.46066 4.90475C5.3758 5.25612 5.33079 5.62284 5.33079 5.99991C5.33079 7.35106 5.90795 8.56981 6.82836 9.42319C5.64354 8.98553 4.63604 8.37139 3.87566 7.81595C2.93361 7.1279 2.22761 6.432 1.82511 5.99991C2.22778 5.56768 2.9337 4.87187 3.87566 4.18386C4.63604 3.62843 5.64358 3.01428 6.82836 2.57658L7.40936 3.23149C8.08792 2.5961 8.99922 2.20643 9.99993 2.20643C12.0916 2.20643 13.7934 3.90816 13.7934 5.99991C13.7934 8.09165 12.0916 9.79338 9.99993 9.79338ZM16.1242 7.81595C15.3637 8.37139 14.3563 8.98553 13.1715 9.42319C14.0919 8.56986 14.669 7.3511 14.669 5.99986C14.669 4.64862 14.0919 3.42991 13.1715 2.57653C14.3563 3.01423 15.3637 3.62838 16.1242 4.18382C17.0663 4.87187 17.7723 5.56776 18.1748 5.99982C17.7721 6.43214 17.0662 7.12798 16.1242 7.81595Z" fill="black"/>
</svg>
