<svg width="20" height="26" viewBox="0 0 20 26" fill="none" xmlns="http://www.w3.org/2000/svg">
<circle cx="10" cy="13" r="10" fill="#DE1616"/>
<path d="M13.88 13.216C13.88 14.224 13.7707 15.1013 13.552 15.848C13.3387 16.5893 13.04 17.2027 12.656 17.688C12.2773 18.1733 11.8267 18.536 11.304 18.776C10.7867 19.0107 10.2267 19.128 9.624 19.128C9.02133 19.128 8.46133 19.0107 7.944 18.776C7.432 18.536 6.98667 18.1733 6.608 17.688C6.22933 17.2027 5.93333 16.5893 5.72 15.848C5.50667 15.1013 5.4 14.224 5.4 13.216C5.4 12.2027 5.50667 11.3253 5.72 10.584C5.93333 9.84267 6.22933 9.22933 6.608 8.744C6.98667 8.25867 7.432 7.89867 7.944 7.664C8.46133 7.424 9.02133 7.304 9.624 7.304C10.2267 7.304 10.7867 7.424 11.304 7.664C11.8267 7.89867 12.2773 8.25867 12.656 8.744C13.04 9.22933 13.3387 9.84267 13.552 10.584C13.7707 11.3253 13.88 12.2027 13.88 13.216ZM11.84 13.216C11.84 12.3787 11.7787 11.6853 11.656 11.136C11.5333 10.5867 11.368 10.1493 11.16 9.824C10.9573 9.49867 10.7227 9.272 10.456 9.144C10.1893 9.01067 9.912 8.944 9.624 8.944C9.34133 8.944 9.06667 9.01067 8.8 9.144C8.53867 9.272 8.30667 9.49867 8.104 9.824C7.90133 10.1493 7.73867 10.5867 7.616 11.136C7.49867 11.6853 7.44 12.3787 7.44 13.216C7.44 14.0533 7.49867 14.7467 7.616 15.296C7.73867 15.8453 7.90133 16.2827 8.104 16.608C8.30667 16.9333 8.53867 17.1627 8.8 17.296C9.06667 17.424 9.34133 17.488 9.624 17.488C9.912 17.488 10.1893 17.424 10.456 17.296C10.7227 17.1627 10.9573 16.9333 11.16 16.608C11.368 16.2827 11.5333 15.8453 11.656 15.296C11.7787 14.7467 11.84 14.0533 11.84 13.216Z" fill="white"/>
</svg>
