<svg width="44" height="13" viewBox="0 0 44 13" fill="none" xmlns="http://www.w3.org/2000/svg">
<path d="M3.556 12.952V6.834L3.892 6.344V0.911999H4.788V6.568L4.452 7.212V12.952H3.556ZM6.72 3.782C6.36533 3.59533 5.98267 3.43667 5.572 3.306C5.16133 3.17533 4.76467 3.11 4.382 3.11C3.85933 3.11 3.444 3.23133 3.136 3.474C2.828 3.70733 2.674 4.02933 2.674 4.44C2.674 4.72933 2.77667 4.98133 2.982 5.196C3.18733 5.41067 3.45333 5.59733 3.78 5.756C4.10667 5.91467 4.452 6.064 4.816 6.204C5.124 6.316 5.42733 6.45133 5.726 6.61C6.034 6.75933 6.30933 6.946 6.552 7.17C6.804 7.394 7 7.674 7.14 8.01C7.28933 8.33667 7.364 8.738 7.364 9.214C7.364 9.75533 7.22867 10.2453 6.958 10.684C6.69667 11.1227 6.314 11.4727 5.81 11.734C5.31533 11.986 4.71333 12.112 4.004 12.112C3.57467 12.112 3.15467 12.0653 2.744 11.972C2.34267 11.8693 1.96 11.7387 1.596 11.58C1.24133 11.412 0.919333 11.23 0.63 11.034L1.302 9.872C1.526 10.0307 1.78267 10.1847 2.072 10.334C2.36133 10.474 2.66 10.586 2.968 10.67C3.28533 10.754 3.584 10.796 3.864 10.796C4.172 10.796 4.47533 10.7447 4.774 10.642C5.07267 10.53 5.32 10.362 5.516 10.138C5.712 9.90467 5.81 9.60133 5.81 9.228C5.81 8.91067 5.72133 8.64467 5.544 8.43C5.376 8.206 5.14733 8.01467 4.858 7.856C4.578 7.69733 4.27467 7.55733 3.948 7.436C3.63067 7.31467 3.30867 7.17933 2.982 7.03C2.65533 6.88067 2.352 6.70333 2.072 6.498C1.792 6.28333 1.56333 6.022 1.386 5.714C1.218 5.39667 1.134 5.00933 1.134 4.552C1.134 4.01067 1.26 3.53933 1.512 3.138C1.77333 2.72733 2.13267 2.40533 2.59 2.172C3.04733 1.93867 3.57467 1.808 4.172 1.78C4.85333 1.78 5.446 1.864 5.95 2.032C6.454 2.2 6.902 2.40067 7.294 2.634L6.72 3.782ZM18.1684 12.042C17.6084 12.042 17.0904 11.9393 16.6144 11.734C16.1477 11.5193 15.7417 11.2113 15.3964 10.81C15.0511 10.4087 14.7804 9.91867 14.5844 9.34C14.3884 8.752 14.2904 8.08933 14.2904 7.352C14.2904 6.54933 14.3837 5.854 14.5704 5.266C14.7571 4.678 15.0184 4.19267 15.3544 3.81C15.6997 3.418 16.1104 3.13333 16.5864 2.956C17.0624 2.76933 17.5897 2.676 18.1684 2.676C18.7377 2.676 19.2557 2.77867 19.7224 2.984C20.1984 3.18933 20.6091 3.49267 20.9544 3.894C21.2997 4.29533 21.5657 4.79 21.7524 5.378C21.9484 5.95667 22.0464 6.61467 22.0464 7.352C22.0464 8.108 21.9484 8.78 21.7524 9.368C21.5657 9.94667 21.2951 10.4367 20.9404 10.838C20.5951 11.23 20.1891 11.5287 19.7224 11.734C19.2557 11.9393 18.7377 12.042 18.1684 12.042ZM18.1544 10.6C18.6864 10.6 19.1251 10.4647 19.4704 10.194C19.8157 9.914 20.0724 9.52667 20.2404 9.032C20.4084 8.528 20.4924 7.954 20.4924 7.31C20.4924 6.68467 20.4084 6.134 20.2404 5.658C20.0724 5.17267 19.8157 4.79467 19.4704 4.524C19.1251 4.244 18.6864 4.10867 18.1544 4.118C17.6411 4.10867 17.2117 4.244 16.8664 4.524C16.5211 4.79467 16.2644 5.17267 16.0964 5.658C15.9284 6.14333 15.8444 6.708 15.8444 7.352C15.8444 7.97733 15.9284 8.53733 16.0964 9.032C16.2644 9.52667 16.5211 9.914 16.8664 10.194C17.2117 10.4647 17.6411 10.6 18.1544 10.6ZM23.6567 11.202C23.6567 10.978 23.7361 10.7913 23.8947 10.642C24.0627 10.4833 24.2494 10.404 24.4547 10.404C24.6414 10.404 24.8141 10.4833 24.9727 10.642C25.1407 10.7913 25.2247 10.978 25.2247 11.202C25.2247 11.4447 25.1407 11.6407 24.9727 11.79C24.8141 11.93 24.6414 12 24.4547 12C24.2494 12 24.0627 11.93 23.8947 11.79C23.7361 11.6407 23.6567 11.4447 23.6567 11.202ZM30.67 12.042C30.11 12.042 29.592 11.9393 29.116 11.734C28.6493 11.5193 28.2433 11.2113 27.898 10.81C27.5526 10.4087 27.282 9.91867 27.086 9.34C26.89 8.752 26.792 8.08933 26.792 7.352C26.792 6.54933 26.8853 5.854 27.072 5.266C27.2586 4.678 27.52 4.19267 27.856 3.81C28.2013 3.418 28.612 3.13333 29.088 2.956C29.564 2.76933 30.0913 2.676 30.67 2.676C31.2393 2.676 31.7573 2.77867 32.224 2.984C32.7 3.18933 33.1106 3.49267 33.456 3.894C33.8013 4.29533 34.0673 4.79 34.254 5.378C34.45 5.95667 34.548 6.61467 34.548 7.352C34.548 8.108 34.45 8.78 34.254 9.368C34.0673 9.94667 33.7966 10.4367 33.442 10.838C33.0966 11.23 32.6906 11.5287 32.224 11.734C31.7573 11.9393 31.2393 12.042 30.67 12.042ZM30.656 10.6C31.188 10.6 31.6266 10.4647 31.972 10.194C32.3173 9.914 32.574 9.52667 32.742 9.032C32.91 8.528 32.994 7.954 32.994 7.31C32.994 6.68467 32.91 6.134 32.742 5.658C32.574 5.17267 32.3173 4.79467 31.972 4.524C31.6266 4.244 31.188 4.10867 30.656 4.118C30.1426 4.10867 29.7133 4.244 29.368 4.524C29.0226 4.79467 28.766 5.17267 28.598 5.658C28.43 6.14333 28.346 6.708 28.346 7.352C28.346 7.97733 28.43 8.53733 28.598 9.032C28.766 9.52667 29.0226 9.914 29.368 10.194C29.7133 10.4647 30.1426 10.6 30.656 10.6ZM40.1063 12.042C39.5463 12.042 39.0283 11.9393 38.5523 11.734C38.0856 11.5193 37.6796 11.2113 37.3343 10.81C36.9889 10.4087 36.7183 9.91867 36.5223 9.34C36.3263 8.752 36.2283 8.08933 36.2283 7.352C36.2283 6.54933 36.3216 5.854 36.5083 5.266C36.6949 4.678 36.9563 4.19267 37.2923 3.81C37.6376 3.418 38.0483 3.13333 38.5243 2.956C39.0003 2.76933 39.5276 2.676 40.1063 2.676C40.6756 2.676 41.1936 2.77867 41.6603 2.984C42.1363 3.18933 42.5469 3.49267 42.8923 3.894C43.2376 4.29533 43.5036 4.79 43.6903 5.378C43.8863 5.95667 43.9843 6.61467 43.9843 7.352C43.9843 8.108 43.8863 8.78 43.6903 9.368C43.5036 9.94667 43.2329 10.4367 42.8783 10.838C42.5329 11.23 42.1269 11.5287 41.6603 11.734C41.1936 11.9393 40.6756 12.042 40.1063 12.042ZM40.0923 10.6C40.6243 10.6 41.0629 10.4647 41.4083 10.194C41.7536 9.914 42.0103 9.52667 42.1783 9.032C42.3463 8.528 42.4303 7.954 42.4303 7.31C42.4303 6.68467 42.3463 6.134 42.1783 5.658C42.0103 5.17267 41.7536 4.79467 41.4083 4.524C41.0629 4.244 40.6243 4.10867 40.0923 4.118C39.5789 4.10867 39.1496 4.244 38.8043 4.524C38.4589 4.79467 38.2023 5.17267 38.0343 5.658C37.8663 6.14333 37.7823 6.708 37.7823 7.352C37.7823 7.97733 37.8663 8.53733 38.0343 9.032C38.2023 9.52667 38.4589 9.914 38.8043 10.194C39.1496 10.4647 39.5789 10.6 40.0923 10.6Z" fill="black"/>
</svg>
